#N canvas 0 23 358 240 10;
#X msg 77 -252 stop;
#X floatatom 128 -252 5 0 0 0 - - -;
#X obj 128 -224 / 60;
#X obj 128 -195 pow -1;
#X obj 128 -166 * 1000;
#X obj 77 -130 metro 700;
#X text 143 -129 85 bpm par défaut;
#X obj 77 -101 outlet;
#X obj 128 -281 inlet;
#X msg 23 -252 bang;
#X obj 23 -281 inlet;
#X obj 77 -281 inlet;
#X connect 0 0 5 0;
#X connect 1 0 2 0;
#X connect 2 0 3 0;
#X connect 3 0 4 0;
#X connect 4 0 5 1;
#X connect 5 0 7 0;
#X connect 8 0 1 0;
#X connect 9 0 5 0;
#X connect 10 0 9 0;
#X connect 11 0 0 0;
#X coords 0 240 1 239 85 60 0;
