#N canvas 0 410 604 364 10;
#X obj 97 190 netsend;
#X floatatom 97 225 5 0 0 0 - - -;
#X msg 267 154 send var1 \$1;
#X msg 97 82 connect 192.168.0.255 13000;
#X msg 397 155 send var2 \$1;
#X obj 300 -8 vsl 15 128 0 100 0 0 empty empty empty 0 -9 0 10 -262144
-1 -1 12700 1;
#X obj 397 -8 vsl 15 128 0 100 0 0 empty empty empty 0 -9 0 10 -262144
-1 -1 12700 1;
#X connect 0 0 1 0;
#X connect 2 0 0 0;
#X connect 3 0 0 0;
#X connect 4 0 0 0;
#X connect 5 0 2 0;
#X connect 6 0 4 0;
