#N canvas 0 23 1280 751 10;
#X obj -148 90 f;
#X obj -108 89 + 1;
#X obj -148 116 mod 16;
#X obj -148 145 hradio 15 1 0 16 empty empty empty 0 -8 0 10 -262144
-1 -1 8;
#X obj -148 23 inlet;
#X text -108 22 link to bpm;
#X obj -186 -1 inlet;
#X text -148 -1 start everything;
#X obj 432 376 sound_player sounds/samples/snare.wav;
#X obj 297 1 inlet;
#X text 345 -11 link to EEG param;
#X floatatom 297 25 5 0 0 0 - - -;
#X obj 299 170 tgl 15 0 empty empty empty 17 7 0 10 -262144 -1 -1 1
1;
#X obj 363 170 tgl 15 0 empty empty empty 17 7 0 10 -262144 -1 -1 0
1;
#X obj 438 170 tgl 15 0 empty empty empty 17 7 0 10 -262144 -1 -1 0
1;
#X obj 558 170 tgl 15 0 empty empty empty 17 7 0 10 -262144 -1 -1 0
1;
#X obj 598 170 tgl 15 0 empty empty empty 17 7 0 10 -262144 -1 -1 0
1;
#X obj 363 134 &&;
#X obj 438 134 &&;
#X obj 558 134 &&;
#X obj 598 134 &&;
#X obj 382 108 < 40;
#X obj 419 108 >= 40;
#X obj 471 108 < 60;
#X obj 513 108 >= 60;
#X obj 558 108 < 80;
#X obj 598 108 >= 80;
#X obj 643 108 <= 100;
#X obj -148 516 sixteen_step_selector;
#X obj -186 558 sound_player sounds/samples/analog_kick.wav;
#X obj 633 309 sixteen_step_selector;
#X obj 299 108 < 20;
#X obj 337 109 >= 20;
#X obj -138 360 ||;
#X obj -62 362 ||;
#X obj -97 360 ||;
#X obj -129 401 ||;
#X obj -28 362 ||;
#X obj -114 431 ||;
#X obj -89 462 ||;
#X connect 0 0 1 0;
#X connect 0 0 2 0;
#X connect 1 0 0 1;
#X connect 2 0 3 0;
#X connect 3 0 28 0;
#X connect 4 0 0 0;
#X connect 6 0 29 0;
#X connect 6 0 8 0;
#X connect 6 0 11 0;
#X connect 9 0 11 0;
#X connect 11 0 21 0;
#X connect 11 0 22 0;
#X connect 11 0 23 0;
#X connect 11 0 24 0;
#X connect 11 0 25 0;
#X connect 11 0 26 0;
#X connect 11 0 27 0;
#X connect 11 0 31 0;
#X connect 11 0 32 0;
#X connect 12 0 33 0;
#X connect 13 0 33 1;
#X connect 13 0 35 0;
#X connect 14 0 34 0;
#X connect 14 0 35 1;
#X connect 15 0 34 1;
#X connect 15 0 37 0;
#X connect 16 0 37 1;
#X connect 16 0 28 15;
#X connect 17 0 13 0;
#X connect 18 0 14 0;
#X connect 19 0 15 0;
#X connect 20 0 16 0;
#X connect 21 0 17 1;
#X connect 22 0 18 0;
#X connect 23 0 18 1;
#X connect 24 0 19 0;
#X connect 25 0 19 1;
#X connect 26 0 20 0;
#X connect 27 0 20 1;
#X connect 28 0 29 1;
#X connect 28 1 29 1;
#X connect 28 2 29 1;
#X connect 28 3 29 1;
#X connect 28 4 29 1;
#X connect 28 5 29 1;
#X connect 28 6 29 1;
#X connect 28 7 29 1;
#X connect 28 8 29 1;
#X connect 28 9 29 1;
#X connect 28 10 29 1;
#X connect 28 11 29 1;
#X connect 28 12 29 1;
#X connect 28 13 29 1;
#X connect 28 14 29 1;
#X connect 28 15 29 1;
#X connect 30 0 8 1;
#X connect 30 1 8 1;
#X connect 30 2 8 1;
#X connect 30 3 8 1;
#X connect 30 4 8 1;
#X connect 30 5 8 1;
#X connect 30 6 8 1;
#X connect 30 7 8 1;
#X connect 30 8 8 1;
#X connect 30 9 8 1;
#X connect 30 10 8 1;
#X connect 30 11 8 1;
#X connect 30 12 8 1;
#X connect 30 13 8 1;
#X connect 30 14 8 1;
#X connect 30 15 8 1;
#X connect 31 0 12 0;
#X connect 32 0 17 0;
#X connect 33 0 36 0;
#X connect 34 0 38 1;
#X connect 35 0 36 1;
#X connect 36 0 38 0;
#X connect 37 0 39 1;
#X connect 37 0 28 3;
#X connect 37 0 28 7;
#X connect 37 0 28 11;
#X connect 38 0 39 0;
#X connect 39 0 28 1;
#X connect 39 0 28 5;
#X connect 39 0 28 9;
#X connect 39 0 28 13;
