#N canvas 0 23 640 751 10;
#X msg 40 81 open sounds/drum_0.aif;
#X msg -3 107 start;
#X obj 80 170 print played;
#X msg 195 83 stop;
#X obj 164 17 inlet;
#X floatatom 195 50 5 0 0 0 - - -;
#X obj 40 135 readsf~;
#X obj 40 171 dac~;
#X obj 24 31 inlet;
#X obj 96 16 inlet;
#N canvas 0 22 450 278 (subpatch) 0;
#X array current_loop 249035 float 2;
#X coords 0 1 249035 -1 200 140 1 0 0;
#X restore 323 264 graph;
#X msg 330 51 open sounds/drum_0.aif;
#X obj 334 135 soundfiler;
#X msg 329 95 read -resize \$1 current_loop;
#X obj 79 355 dac~;
#X obj 79 306 tabplay~ current_loop;
#X msg 517 48 open sounds/drum_1.aif;
#X msg 661 48 open sounds/drum_2.aif;
#X msg 825 51 open sounds/drum_3.aif;
#X text 456 247 size=132300;
#X obj 675 212 metro 700;
#X obj 668 160 bng 15 250 50 0 empty empty empty 17 7 0 10 -262144
-1 -1;
#X obj 719 283 + 1;
#X obj 663 282 float;
#X floatatom 657 373 5 0 0 0 - - -;
#X obj 720 163 hsl 128 15 400 900 0 0 empty empty empty -2 -8 0 10
-262144 -1 -1 0 1;
#X obj 656 408 * 4134.38;
#X msg 81 259 stop;
#X obj 768 392 /;
#X floatatom 768 422 5 0 0 0 - - -;
#X msg 735 357 132300;
#X obj 783 283 32;
#X obj 660 329 mod;
#X msg 652 468 4134 4;
#X connect 0 0 6 0;
#X connect 0 0 1 0;
#X connect 1 0 6 0;
#X connect 3 0 6 0;
#X connect 4 0 5 0;
#X connect 6 0 7 0;
#X connect 6 0 7 1;
#X connect 6 1 2 0;
#X connect 6 1 0 0;
#X connect 8 0 0 0;
#X connect 9 0 3 0;
#X connect 11 0 13 0;
#X connect 13 0 12 0;
#X connect 15 0 14 0;
#X connect 15 0 14 1;
#X connect 16 0 13 0;
#X connect 17 0 13 0;
#X connect 18 0 13 0;
#X connect 20 0 23 0;
#X connect 21 0 20 0;
#X connect 22 0 23 1;
#X connect 23 0 22 0;
#X connect 23 0 32 0;
#X connect 24 0 26 0;
#X connect 25 0 20 1;
#X connect 26 0 33 0;
#X connect 27 0 15 0;
#X connect 28 0 29 0;
#X connect 29 0 26 1;
#X connect 30 0 28 0;
#X connect 31 0 28 1;
#X connect 31 0 32 1;
#X connect 32 0 24 0;
#X connect 33 0 15 0;
