#N canvas 0 23 1005 556 10;
#X obj -148 90 f;
#X obj -108 89 + 1;
#X obj -148 116 mod 16;
#X obj -148 145 hradio 15 1 0 16 empty empty empty 0 -8 0 10 -262144
-1 -1 5;
#X obj -148 23 inlet;
#X text -108 22 link to bpm;
#X obj -186 -1 inlet;
#X text -148 -1 start everything;
#X obj 106 723 sound_player sounds/samples/snare.wav;
#X obj 297 1 inlet;
#X text 345 -11 link to EEG param;
#X floatatom 297 25 5 0 0 0 - - -;
#X obj 299 170 tgl 15 0 empty empty empty 17 7 0 10 -262144 -1 -1 0
1;
#X obj 363 170 tgl 15 0 empty empty empty 17 7 0 10 -262144 -1 -1 0
1;
#X obj 438 170 tgl 15 0 empty empty empty 17 7 0 10 -262144 -1 -1 0
1;
#X obj 558 170 tgl 15 0 empty empty empty 17 7 0 10 -262144 -1 -1 0
1;
#X obj 598 170 tgl 15 0 empty empty empty 17 7 0 10 -262144 -1 -1 1
1;
#X obj 363 134 &&;
#X obj 438 134 &&;
#X obj 558 134 &&;
#X obj 598 134 &&;
#X obj 382 108 < 40;
#X obj 419 108 >= 40;
#X obj 471 108 < 60;
#X obj 513 108 >= 60;
#X obj 558 108 < 80;
#X obj 598 108 >= 80;
#X obj 643 108 <= 100;
#X obj -186 725 sound_player sounds/samples/analog_kick.wav;
#X obj 299 108 < 20;
#X obj 337 109 >= 20;
#X obj 141 513 sixteen_step_selector;
#X obj -164 555 sound_player sounds/samples/long_kick.wav;
#X obj 103 555 sound_player sounds/samples/shaker.wav;
#X obj 445 555 sound_player sounds/samples/hi_muted_conga.wav;
#X obj 776 325 sound_player sounds/samples/hi_slap_conga.wav;
#X obj 765 95 sound_player sounds/samples/low_ring_conga.wav;
#X obj 440 705 sound_player sounds/samples/low_slap_conga.wav;
#X obj 765 243 sound_player sounds/samples/normal_hh.wav;
#X obj 777 162 sound_player sounds/samples/reverb_hh.wav;
#X obj 167 485 ||;
#X obj 197 416 ||;
#X obj 224 415 ||;
#X obj 251 416 ||;
#X obj 209 438 ||;
#X obj 237 440 ||;
#X obj 218 459 ||;
#X obj 189 671 sixteen_step_selector;
#X obj -148 683 sixteen_step_selector;
#X obj -126 513 sixteen_step_selector;
#X obj 483 513 sixteen_step_selector;
#X obj 814 283 sixteen_step_selector;
#X obj 803 53 sixteen_step_selector;
#X obj 478 663 sixteen_step_selector;
#X obj 803 201 sixteen_step_selector;
#X obj 815 120 sixteen_step_selector;
#X obj -100 423 ||;
#X obj -53 424 ||;
#X obj -18 425 ||;
#X obj -69 455 ||;
#X obj -41 455 ||;
#X obj -146 424 ||;
#X obj -57 480 ||;
#X obj -141 595 ||;
#X obj -113 595 ||;
#X obj -83 595 ||;
#X obj -52 595 ||;
#X obj -105 626 ||;
#X obj -69 626 ||;
#X obj -86 653 ||;
#X text 763 23 unused;
#X obj 493 413 ||;
#X obj 563 413 ||;
#X obj 527 449 ||;
#X obj 562 613 ||;
#X connect 0 0 1 0;
#X connect 0 0 2 0;
#X connect 1 0 0 1;
#X connect 2 0 3 0;
#X connect 3 0 31 0;
#X connect 3 0 49 0;
#X connect 3 0 48 0;
#X connect 3 0 47 0;
#X connect 3 0 50 0;
#X connect 3 0 53 0;
#X connect 4 0 0 0;
#X connect 6 0 11 0;
#X connect 6 0 33 0;
#X connect 6 0 32 0;
#X connect 6 0 28 0;
#X connect 6 0 8 0;
#X connect 6 0 34 0;
#X connect 6 0 37 0;
#X connect 9 0 11 0;
#X connect 11 0 21 0;
#X connect 11 0 22 0;
#X connect 11 0 23 0;
#X connect 11 0 24 0;
#X connect 11 0 25 0;
#X connect 11 0 26 0;
#X connect 11 0 27 0;
#X connect 11 0 29 0;
#X connect 11 0 30 0;
#X connect 12 0 40 0;
#X connect 12 0 61 0;
#X connect 12 0 63 0;
#X connect 13 0 41 0;
#X connect 13 0 61 1;
#X connect 13 0 56 0;
#X connect 13 0 63 1;
#X connect 13 0 64 0;
#X connect 14 0 41 1;
#X connect 14 0 42 0;
#X connect 14 0 56 1;
#X connect 14 0 57 0;
#X connect 14 0 64 1;
#X connect 14 0 65 0;
#X connect 14 0 71 0;
#X connect 15 0 42 1;
#X connect 15 0 43 0;
#X connect 15 0 57 1;
#X connect 15 0 58 0;
#X connect 15 0 65 1;
#X connect 15 0 66 0;
#X connect 15 0 72 0;
#X connect 15 0 71 1;
#X connect 15 0 74 0;
#X connect 16 0 43 1;
#X connect 16 0 58 1;
#X connect 16 0 49 5;
#X connect 16 0 49 13;
#X connect 16 0 66 1;
#X connect 16 0 47 3;
#X connect 16 0 72 1;
#X connect 16 0 47 13;
#X connect 16 0 74 1;
#X connect 17 0 13 0;
#X connect 18 0 14 0;
#X connect 19 0 15 0;
#X connect 20 0 16 0;
#X connect 21 0 17 1;
#X connect 22 0 18 0;
#X connect 23 0 18 1;
#X connect 24 0 19 0;
#X connect 25 0 19 1;
#X connect 26 0 20 0;
#X connect 27 0 20 1;
#X connect 29 0 12 0;
#X connect 30 0 17 0;
#X connect 31 0 33 1;
#X connect 31 1 33 1;
#X connect 31 2 33 1;
#X connect 31 3 33 1;
#X connect 31 4 33 1;
#X connect 31 5 33 1;
#X connect 31 6 33 1;
#X connect 31 7 33 1;
#X connect 31 8 33 1;
#X connect 31 9 33 1;
#X connect 31 10 33 1;
#X connect 31 11 33 1;
#X connect 31 12 33 1;
#X connect 31 13 33 1;
#X connect 31 14 33 1;
#X connect 31 15 33 1;
#X connect 40 0 31 1;
#X connect 40 0 31 5;
#X connect 40 0 31 9;
#X connect 40 0 31 13;
#X connect 41 0 44 0;
#X connect 42 0 44 1;
#X connect 42 0 45 0;
#X connect 43 0 45 1;
#X connect 44 0 46 0;
#X connect 45 0 46 1;
#X connect 46 0 40 1;
#X connect 46 0 31 3;
#X connect 46 0 31 7;
#X connect 46 0 31 11;
#X connect 46 0 31 15;
#X connect 47 0 8 1;
#X connect 47 1 8 1;
#X connect 47 2 8 1;
#X connect 47 3 8 1;
#X connect 47 4 8 1;
#X connect 47 5 8 1;
#X connect 47 6 8 1;
#X connect 47 7 8 1;
#X connect 47 8 8 1;
#X connect 47 9 8 1;
#X connect 47 10 8 1;
#X connect 47 11 8 1;
#X connect 47 12 8 1;
#X connect 47 13 8 1;
#X connect 47 14 8 1;
#X connect 47 15 8 1;
#X connect 48 0 28 1;
#X connect 48 1 28 1;
#X connect 48 2 28 1;
#X connect 48 3 28 1;
#X connect 48 4 28 1;
#X connect 48 5 28 1;
#X connect 48 6 28 1;
#X connect 48 7 28 1;
#X connect 48 8 28 1;
#X connect 48 9 28 1;
#X connect 48 10 28 1;
#X connect 48 11 28 1;
#X connect 48 12 28 1;
#X connect 48 13 28 1;
#X connect 48 14 28 1;
#X connect 48 15 28 1;
#X connect 49 0 32 1;
#X connect 49 1 32 1;
#X connect 49 2 32 1;
#X connect 49 3 32 1;
#X connect 49 4 32 1;
#X connect 49 5 32 1;
#X connect 49 6 32 1;
#X connect 49 7 32 1;
#X connect 49 8 32 1;
#X connect 49 9 32 1;
#X connect 49 10 32 1;
#X connect 49 11 32 1;
#X connect 49 12 32 1;
#X connect 49 13 32 1;
#X connect 49 14 32 1;
#X connect 49 15 32 1;
#X connect 50 0 34 1;
#X connect 50 1 34 1;
#X connect 50 2 34 1;
#X connect 50 3 34 1;
#X connect 50 4 34 1;
#X connect 50 5 34 1;
#X connect 50 6 34 1;
#X connect 50 7 34 1;
#X connect 50 8 34 1;
#X connect 50 9 34 1;
#X connect 50 10 34 1;
#X connect 50 11 34 1;
#X connect 50 12 34 1;
#X connect 50 13 34 1;
#X connect 50 14 34 1;
#X connect 50 15 34 1;
#X connect 51 0 35 1;
#X connect 51 1 35 1;
#X connect 51 2 35 1;
#X connect 51 3 35 1;
#X connect 51 4 35 1;
#X connect 51 5 35 1;
#X connect 51 6 35 1;
#X connect 51 7 35 1;
#X connect 51 8 35 1;
#X connect 51 9 35 1;
#X connect 51 10 35 1;
#X connect 51 11 35 1;
#X connect 51 12 35 1;
#X connect 51 13 35 1;
#X connect 51 14 35 1;
#X connect 51 15 35 1;
#X connect 52 0 36 1;
#X connect 52 1 36 1;
#X connect 52 2 36 1;
#X connect 52 3 36 1;
#X connect 52 4 36 1;
#X connect 52 5 36 1;
#X connect 52 6 36 1;
#X connect 52 7 36 1;
#X connect 52 8 36 1;
#X connect 52 9 36 1;
#X connect 52 10 36 1;
#X connect 52 11 36 1;
#X connect 52 12 36 1;
#X connect 52 13 36 1;
#X connect 52 14 36 1;
#X connect 52 15 36 1;
#X connect 53 0 37 1;
#X connect 53 1 37 1;
#X connect 53 2 37 1;
#X connect 53 3 37 1;
#X connect 53 4 37 1;
#X connect 53 5 37 1;
#X connect 53 6 37 1;
#X connect 53 7 37 1;
#X connect 53 8 37 1;
#X connect 53 9 37 1;
#X connect 53 10 37 1;
#X connect 53 11 37 1;
#X connect 53 12 37 1;
#X connect 53 13 37 1;
#X connect 53 14 37 1;
#X connect 53 15 37 1;
#X connect 54 0 38 1;
#X connect 54 1 38 1;
#X connect 54 2 38 1;
#X connect 54 3 38 1;
#X connect 54 4 38 1;
#X connect 54 5 38 1;
#X connect 54 6 38 1;
#X connect 54 7 38 1;
#X connect 54 8 38 1;
#X connect 54 9 38 1;
#X connect 54 10 38 1;
#X connect 54 11 38 1;
#X connect 54 12 38 1;
#X connect 54 13 38 1;
#X connect 54 14 38 1;
#X connect 54 15 38 1;
#X connect 55 0 39 1;
#X connect 55 1 39 1;
#X connect 55 2 39 1;
#X connect 55 3 39 1;
#X connect 55 4 39 1;
#X connect 55 5 39 1;
#X connect 55 6 39 1;
#X connect 55 7 39 1;
#X connect 55 8 39 1;
#X connect 55 9 39 1;
#X connect 55 10 39 1;
#X connect 55 11 39 1;
#X connect 55 12 39 1;
#X connect 55 13 39 1;
#X connect 55 14 39 1;
#X connect 55 15 39 1;
#X connect 56 0 59 0;
#X connect 57 0 59 1;
#X connect 57 0 60 0;
#X connect 57 0 49 3;
#X connect 58 0 60 1;
#X connect 59 0 62 0;
#X connect 60 0 62 1;
#X connect 60 0 49 1;
#X connect 61 0 49 2;
#X connect 62 0 49 9;
#X connect 63 0 48 1;
#X connect 64 0 67 0;
#X connect 65 0 68 0;
#X connect 65 0 67 1;
#X connect 66 0 68 1;
#X connect 67 0 69 0;
#X connect 68 0 69 1;
#X connect 68 0 48 9;
#X connect 68 0 48 5;
#X connect 69 0 48 13;
#X connect 71 0 73 0;
#X connect 72 0 73 1;
#X connect 73 0 50 2;
#X connect 73 0 50 5;
#X connect 73 0 50 13;
#X connect 74 0 53 11;
