#N canvas 0 23 1280 751 10;
#X msg 40 81 open sounds/drum_0.aif;
#X msg -3 107 start;
#X obj 80 170 print played;
#X msg 195 83 stop;
#X obj 164 17 inlet;
#X floatatom 195 50 5 0 0 0 - - -;
#X obj 40 135 readsf~;
#X obj 40 171 dac~;
#X obj 25 15 inlet;
#X obj 96 16 inlet;
#X connect 0 0 6 0;
#X connect 0 0 1 0;
#X connect 1 0 6 0;
#X connect 3 0 6 0;
#X connect 4 0 5 0;
#X connect 6 0 7 0;
#X connect 6 0 7 1;
#X connect 6 1 2 0;
#X connect 6 1 0 0;
#X connect 8 0 0 0;
#X connect 9 0 3 0;
