#N canvas 16 387 924 383 10;
#X obj 29 68 f;
#X obj 69 67 + 1;
#X obj 29 94 mod 16;
#X obj 29 123 hradio 15 1 0 16 empty empty empty 0 -8 0 10 -262144
-1 -1 11;
#X obj 10 158 select 0 1 2 3 4 5 6 7 8 9 10 11 12 13 14 15;
#X obj 29 1 inlet;
#X text 69 0 link to bpm;
#X obj -186 -1 inlet;
#X text -148 -1 start everything;
#X obj 66 201 tgl 15 0 empty empty empty 17 7 0 10 -262144 -1 -1 1
1;
#X obj 38 221 &&;
#X obj 95 202 tgl 15 0 empty empty empty 17 7 0 10 -262144 -1 -1 1
1;
#X obj 67 222 &&;
#X obj 128 203 tgl 15 0 empty empty empty 17 7 0 10 -262144 -1 -1 1
1;
#X obj 100 223 &&;
#X obj 167 202 tgl 15 0 empty empty empty 17 7 0 10 -262144 -1 -1 1
1;
#X obj 139 222 &&;
#X obj 202 203 tgl 15 0 empty empty empty 17 7 0 10 -262144 -1 -1 1
1;
#X obj 174 223 &&;
#X obj -126 299 sound_player sounds/samples/analog_kick.wav;
#X obj 406 308 sound_player sounds/samples/snare.wav;
#X obj 415 258 sixteen_step_selector;
#X obj 297 1 inlet;
#X text 345 -11 link to EEG param;
#X floatatom 297 25 5 0 0 0 - - -;
#X obj 299 170 tgl 15 0 empty empty empty 17 7 0 10 -262144 -1 -1 1
1;
#X obj 363 168 tgl 15 0 empty empty empty 17 7 0 10 -262144 -1 -1 0
1;
#X obj 438 167 tgl 15 0 empty empty empty 17 7 0 10 -262144 -1 -1 0
1;
#X obj 549 170 tgl 15 0 empty empty empty 17 7 0 10 -262144 -1 -1 0
1;
#X obj 609 168 tgl 15 0 empty empty empty 17 7 0 10 -262144 -1 -1 0
1;
#X obj 299 108 < 20;
#X obj 363 134 &&;
#X obj 438 139 &&;
#X obj 547 140 &&;
#X obj 608 138 &&;
#X obj 337 108 >= 20;
#X obj 382 108 < 40;
#X obj 419 107 >= 40;
#X obj 471 108 < 60;
#X obj 513 106 >= 60;
#X obj 558 106 < 80;
#X obj 598 109 >= 80;
#X obj 643 109 <= 100;
#X connect 0 0 1 0;
#X connect 0 0 2 0;
#X connect 1 0 0 1;
#X connect 2 0 3 0;
#X connect 3 0 4 0;
#X connect 4 0 10 0;
#X connect 4 1 12 0;
#X connect 4 2 14 0;
#X connect 4 3 16 0;
#X connect 4 4 18 0;
#X connect 5 0 0 0;
#X connect 7 0 19 0;
#X connect 9 0 10 1;
#X connect 10 0 19 1;
#X connect 11 0 12 1;
#X connect 12 0 19 1;
#X connect 13 0 14 1;
#X connect 14 0 19 1;
#X connect 15 0 16 1;
#X connect 16 0 19 1;
#X connect 17 0 18 1;
#X connect 18 0 19 1;
#X connect 22 0 24 0;
#X connect 24 0 30 0;
#X connect 24 0 35 0;
#X connect 24 0 36 0;
#X connect 24 0 37 0;
#X connect 24 0 38 0;
#X connect 24 0 39 0;
#X connect 24 0 40 0;
#X connect 24 0 41 0;
#X connect 24 0 42 0;
#X connect 30 0 25 0;
#X connect 31 0 26 0;
#X connect 32 0 27 0;
#X connect 33 0 28 0;
#X connect 34 0 29 0;
#X connect 35 0 31 0;
#X connect 36 0 31 1;
#X connect 37 0 32 0;
#X connect 38 0 32 1;
#X connect 39 0 33 0;
#X connect 40 0 33 1;
#X connect 41 0 34 0;
#X connect 42 0 34 1;
