#N canvas 18 369 487 423 10;
#X obj 48 87 print TCP;
#X floatatom 208 62 5 0 0 0 - - -;
#X obj 146 87 route var1 var2;
#X floatatom 146 134 5 0 0 0 - - -;
#X floatatom 189 134 5 0 0 0 - - -;
#X obj 149 189 hsl 128 15 0 127 0 0 empty empty empty -2 -8 0 10 -262144
-1 -1 0 1;
#X obj 192 164 hsl 128 15 0 127 0 0 empty empty empty -2 -8 0 10 -262144
-1 -1 0 1;
#X text 245 63 Network status;
#X text 26 110 Print to console;
#X text 119 188 var1;
#X text 159 163 var2;
#X obj 115 24 netreceive 13000 1;
#X obj 75 378 bng 15 250 50 0 empty empty empty 17 7 0 10 -262144 -1
-1;
#X obj 103 257 hsl 128 15 60 130 0 0 empty empty empty -2 -8 0 10 -262144
-1 -1 6100 1;
#X floatatom 100 288 5 0 0 0 - - -;
#X obj 22 290 bng 15 250 50 0 empty empty empty 17 7 0 10 -262144 -1
-1;
#X obj 52 290 bng 15 250 50 0 empty empty empty 17 7 0 10 -262144 -1
-1;
#X text 10 272 start;
#X text 46 271 stop;
#X text 100 237 ECG [60 \, 130];
#X obj 40 184 tgl 15 0 empty empty empty 17 7 0 10 -262144 -1 -1 1
1;
#X obj 212 372 drum_sequencer;
#X obj 336 297 hsl 128 15 0 100 0 0 empty empty empty -2 -8 0 10 -262144
-1 -1 12700 1;
#X text 333 277 EEG [0 \, 100];
#X text 240 236;
#X obj 31 375 bng 15 250 50 0 empty empty empty 17 7 0 10 -262144 -1
-1;
#X obj 75 343 bpm;
#X obj 30 341 bpm;
#X obj 110 317 * 4;
#X connect 2 0 3 0;
#X connect 2 1 4 0;
#X connect 3 0 5 0;
#X connect 4 0 6 0;
#X connect 11 0 0 0;
#X connect 11 0 2 0;
#X connect 11 0 1 0;
#X connect 12 0 21 1;
#X connect 13 0 14 0;
#X connect 14 0 27 2;
#X connect 14 0 28 0;
#X connect 15 0 27 0;
#X connect 15 0 26 0;
#X connect 15 0 14 0;
#X connect 15 0 21 0;
#X connect 16 0 27 1;
#X connect 16 0 26 1;
#X connect 20 0 15 0;
#X connect 22 0 21 2;
#X connect 26 0 12 0;
#X connect 27 0 25 0;
#X connect 28 0 26 2;
