#N canvas 193 199 598 364 10;
#X obj 166 103 netreceive 13000;
#X obj 164 152 print TCP;
#X floatatom 255 152 5 0 0 0 - - -;
#X obj 387 209 comport 2;
#X msg 749 198 devices;
#X obj 385 267 print;
#X connect 0 0 1 0;
#X connect 0 1 2 0;
#X connect 3 0 5 0;
#X connect 3 1 5 0;
#X connect 4 0 3 0;
