#N canvas 487 479 818 292 10;
#X obj 9 63 select 0 1 2 3 4 5 6 7 8 9 10 11 12 13 14 15;
#X obj 47 35 tgl 15 0 empty empty empty 17 7 0 10 -262144 -1 -1 0 1
;
#X obj 14 186 outlet;
#X obj 92 35 tgl 15 0 empty empty empty 17 7 0 10 -262144 -1 -1 0 1
;
#X obj 59 186 outlet;
#X obj 184 35 tgl 15 0 empty empty empty 17 7 0 10 -262144 -1 -1 0
1;
#X obj 151 186 outlet;
#X obj 138 35 tgl 15 0 empty empty empty 17 7 0 10 -262144 -1 -1 0
1;
#X obj 105 186 outlet;
#X obj 230 35 tgl 15 0 empty empty empty 17 7 0 10 -262144 -1 -1 0
1;
#X obj 197 186 outlet;
#X obj 274 35 tgl 15 0 empty empty empty 17 7 0 10 -262144 -1 -1 0
1;
#X obj 241 186 outlet;
#X obj 321 35 tgl 15 0 empty empty empty 17 7 0 10 -262144 -1 -1 0
1;
#X obj 288 186 outlet;
#X obj 366 35 tgl 15 0 empty empty empty 17 7 0 10 -262144 -1 -1 0
1;
#X obj 333 186 outlet;
#X obj 410 35 tgl 15 0 empty empty empty 17 7 0 10 -262144 -1 -1 0
1;
#X obj 377 186 outlet;
#X obj 460 35 tgl 15 0 empty empty empty 17 7 0 10 -262144 -1 -1 0
1;
#X obj 427 186 outlet;
#X obj 508 35 tgl 15 0 empty empty empty 17 7 0 10 -262144 -1 -1 0
1;
#X obj 475 186 outlet;
#X obj 657 35 tgl 15 0 empty empty empty 17 7 0 10 -262144 -1 -1 0
1;
#X obj 624 186 outlet;
#X obj 554 35 tgl 15 0 empty empty empty 17 7 0 10 -262144 -1 -1 0
1;
#X obj 521 186 outlet;
#X obj 703 35 tgl 15 0 empty empty empty 17 7 0 10 -262144 -1 -1 0
1;
#X obj 670 186 outlet;
#X obj 602 35 tgl 15 0 empty empty empty 17 7 0 10 -262144 -1 -1 0
1;
#X obj 569 186 outlet;
#X obj 751 35 tgl 15 0 empty empty empty 17 7 0 10 -262144 -1 -1 0
1;
#X obj 718 186 outlet;
#X obj 14 166 spigot;
#X obj 151 166 spigot;
#X obj 59 166 spigot;
#X obj 105 166 spigot;
#X obj 197 166 spigot;
#X obj 241 166 spigot;
#X obj 333 166 spigot;
#X obj 427 166 spigot;
#X obj 624 166 spigot;
#X obj 288 166 spigot;
#X obj 377 166 spigot;
#X obj 670 166 spigot;
#X obj 718 166 spigot;
#X obj 475 166 spigot;
#X obj 521 166 spigot;
#X obj 569 166 spigot;
#X obj 9 11 inlet;
#X obj 47 11 inlet;
#X obj 92 11 inlet;
#X obj 138 11 inlet;
#X obj 184 11 inlet;
#X obj 230 11 inlet;
#X obj 274 11 inlet;
#X obj 321 11 inlet;
#X obj 366 11 inlet;
#X obj 410 11 inlet;
#X obj 460 11 inlet;
#X obj 508 11 inlet;
#X obj 554 11 inlet;
#X obj 602 11 inlet;
#X obj 657 11 inlet;
#X obj 703 11 inlet;
#X obj 751 11 inlet;
#X connect 0 0 33 0;
#X connect 0 1 35 0;
#X connect 0 2 36 0;
#X connect 0 3 34 0;
#X connect 0 4 37 0;
#X connect 0 5 38 0;
#X connect 0 6 42 0;
#X connect 0 7 39 0;
#X connect 0 8 43 0;
#X connect 0 9 40 0;
#X connect 0 10 46 0;
#X connect 0 11 47 0;
#X connect 0 12 48 0;
#X connect 0 13 41 0;
#X connect 0 14 44 0;
#X connect 0 15 45 0;
#X connect 1 0 33 1;
#X connect 3 0 35 1;
#X connect 5 0 34 1;
#X connect 7 0 36 1;
#X connect 9 0 37 1;
#X connect 11 0 38 1;
#X connect 13 0 42 1;
#X connect 15 0 39 1;
#X connect 17 0 43 1;
#X connect 19 0 40 1;
#X connect 21 0 46 1;
#X connect 23 0 41 1;
#X connect 25 0 47 1;
#X connect 27 0 44 1;
#X connect 29 0 48 1;
#X connect 31 0 45 1;
#X connect 33 0 2 0;
#X connect 34 0 6 0;
#X connect 35 0 4 0;
#X connect 36 0 8 0;
#X connect 37 0 10 0;
#X connect 38 0 12 0;
#X connect 39 0 16 0;
#X connect 40 0 20 0;
#X connect 41 0 24 0;
#X connect 42 0 14 0;
#X connect 43 0 18 0;
#X connect 44 0 28 0;
#X connect 45 0 32 0;
#X connect 46 0 22 0;
#X connect 47 0 26 0;
#X connect 48 0 30 0;
#X connect 49 0 0 0;
#X connect 50 0 1 0;
#X connect 51 0 3 0;
#X connect 52 0 7 0;
#X connect 53 0 5 0;
#X connect 54 0 9 0;
#X connect 55 0 11 0;
#X connect 56 0 13 0;
#X connect 57 0 15 0;
#X connect 58 0 17 0;
#X connect 59 0 19 0;
#X connect 60 0 21 0;
#X connect 61 0 25 0;
#X connect 62 0 29 0;
#X connect 63 0 23 0;
#X connect 64 0 27 0;
#X connect 65 0 31 0;
#X coords 0 0 2 1 0 0 0;
