#N canvas 0 23 459 316 10;
#X obj 51 -11 soundfiler;
#X obj 264 -11 dac~;
#X obj 264 -48 tabplay~ \$0-tab;
#X obj 51 -130 inlet;
#X obj 264 -121 inlet;
#N canvas 0 22 450 278 (subpatch) 0;
#X array \$0-tab 42353 float 2;
#X coords 0 1 42353 -1 200 140 1;
#X restore 168 22 graph;
#X obj 79 37 print;
#X msg 51 -48 read -resize \$1 \$2-tab;
#X obj 51 -75 pack s \$0;
#X obj 51 -101 symbol \$1;
#X connect 2 0 1 0;
#X connect 2 0 1 1;
#X connect 3 0 9 0;
#X connect 4 0 2 0;
#X connect 7 0 0 0;
#X connect 7 0 6 0;
#X connect 8 0 7 0;
#X connect 9 0 8 0;
#X coords 0 316 1 315 85 60 0;
