#N canvas 0 23 459 316 10;
#X obj 51 -11 soundfiler;
#X obj 264 -11 dac~;
#X obj 264 -48 tabplay~ \$0-tab;
#X obj 51 -130 inlet;
#X obj 264 -121 inlet;
#X obj 51 -84 pack s \$0;
#N canvas 0 22 450 278 (subpatch) 0;
#X array \$0-tab 42353 float 2;
#X coords 0 1 42353 -1 200 140 1;
#X restore 168 22 graph;
#X msg 51 -48 read -resize \$1 \$2-tab;
#X connect 2 0 1 0;
#X connect 2 0 1 1;
#X connect 3 0 5 0;
#X connect 4 0 2 0;
#X connect 5 0 7 0;
#X connect 7 0 0 0;
#X coords 0 316 1 315 85 60 0;
